# xmcd CD database file
#
# Track frame offsets:
#	150
#	17995
#	33015
#	52385
#	75438
#	90792
#	127849
#	143176
#	156640
#	174675
#
# Disc length: 2571 seconds
#
# Revision: 2
# Processed by: cddbd v1.5.1PL0 Copyright (c) Steve Scherf et al.
# Submitted via: CDex 1.51
#
DISCID=7a0a090a
DTITLE=Various Artist - London Love
DYEAR=2005
DGENRE=Easy Listening
TTITLE0=Omar - There's Nothing Like This
TTITLE1=Mica Paris and Will Downing - Where Is The Love
TTITLE2=Eva Cassidy - Drowning In The Sea Of Love
TTITLE3=Jamie Cullum - A Time For Love
TTITLE4=Katie Melua - Call Off The Search
TTITLE5=Kyle Eastwood - Paris Blue
TTITLE6=Tim Burgess - Oh My Corazon
TTITLE7=Ben E King - Stand By Me
TTITLE8=Sam Brown - Stop
TTITLE9=Level 42 - Lessons In Love
EXTD=YEAR: 2005
EXTT0=
EXTT1=
EXTT2=
EXTT3=
EXTT4=
EXTT5=
EXTT6=
EXTT7=
EXTT8=
EXTT9=
PLAYORDER=
